<svg xmlns="http://www.w3.org/2000/svg" viewBox="0 0 800 450" fill="none">
  <rect width="800" height="450" fill="#1e1e2e"/>
  <rect x="40" y="40" width="720" height="60" rx="8" fill="#313244"/>
  <circle cx="80" cy="70" r="15" fill="#f38ba8"/>
  <circle cx="120" cy="70" r="15" fill="#a6e3a1"/>
  <circle cx="160" cy="70" r="15" fill="#f9e2af"/>
  <rect x="200" y="55" width="200" height="30" rx="15" fill="#45475a"/>
  <rect x="680" y="55" width="60" height="30" rx="8" fill="#89b4fa"/>
  <rect x="40" y="120" width="200" height="290" rx="8" fill="#313244"/>
  <rect x="60" y="140" width="160" height="30" rx="4" fill="#45475a"/>
  <rect x="60" y="185" width="120" height="20" rx="4" fill="#45475a"/>
  <rect x="60" y="215" width="140" height="20" rx="4" fill="#45475a"/>
  <rect x="60" y="245" width="100" height="20" rx="4" fill="#45475a"/>
  <rect x="260" y="120" width="500" height="290" rx="8" fill="#313244"/>
  <rect x="280" y="140" width="220" height="120" rx="8" fill="#45475a"/>
  <rect x="520" y="140" width="220" height="120" rx="8" fill="#45475a"/>
  <rect x="280" y="280" width="220" height="120" rx="8" fill="#45475a"/>
  <rect x="520" y="280" width="220" height="120" rx="8" fill="#45475a"/>
  <rect x="300" y="230" width="80" height="20" rx="4" fill="#89b4fa"/>
  <rect x="540" y="230" width="80" height="20" rx="4" fill="#a6e3a1"/>
  <rect x="300" y="370" width="80" height="20" rx="4" fill="#f38ba8"/>
  <rect x="540" y="370" width="80" height="20" rx="4" fill="#f9e2af"/>
</svg>
