<svg xmlns="http://www.w3.org/2000/svg" viewBox="0 0 800 450" fill="none">
  <rect width="800" height="450" fill="#1e1e2e"/>
  <rect x="40" y="40" width="720" height="50" rx="8" fill="#313244"/>
  <rect x="60" y="55" width="100" height="20" rx="4" fill="#cba6f7"/>
  <rect x="680" y="55" width="60" height="20" rx="10" fill="#89b4fa"/>
  <rect x="40" y="110" width="230" height="300" rx="8" fill="#313244"/>
  <rect x="55" y="125" width="80" height="25" rx="4" fill="#f38ba8"/>
  <text x="70" y="143" fill="#1e1e2e" font-size="12" font-family="sans-serif">To Do</text>
  <rect x="55" y="165" width="200" height="60" rx="6" fill="#45475a"/>
  <rect x="55" y="235" width="200" height="60" rx="6" fill="#45475a"/>
  <rect x="55" y="305" width="200" height="60" rx="6" fill="#45475a"/>
  <rect x="285" y="110" width="230" height="300" rx="8" fill="#313244"/>
  <rect x="300" y="125" width="100" height="25" rx="4" fill="#f9e2af"/>
  <text x="315" y="143" fill="#1e1e2e" font-size="12" font-family="sans-serif">In Progress</text>
  <rect x="300" y="165" width="200" height="60" rx="6" fill="#45475a"/>
  <rect x="300" y="235" width="200" height="60" rx="6" fill="#45475a"/>
  <rect x="530" y="110" width="230" height="300" rx="8" fill="#313244"/>
  <rect x="545" y="125" width="60" height="25" rx="4" fill="#a6e3a1"/>
  <text x="555" y="143" fill="#1e1e2e" font-size="12" font-family="sans-serif">Done</text>
  <rect x="545" y="165" width="200" height="60" rx="6" fill="#45475a"/>
  <rect x="545" y="235" width="200" height="60" rx="6" fill="#45475a"/>
  <rect x="545" y="305" width="200" height="60" rx="6" fill="#45475a"/>
  <rect x="545" y="375" width="200" height="25" rx="6" fill="#45475a"/>
</svg>
